<?xml version="1.0" encoding="utf-8"?>
<!-- Generator: Adobe Illustrator 25.0.1, SVG Export Plug-In . SVG Version: 6.00 Build 0)  -->
<!DOCTYPE svg PUBLIC "-//W3C//DTD SVG 1.1//EN" "http://www.w3.org/Graphics/SVG/1.1/DTD/svg11.dtd" [
	<!ENTITY ns_extend "http://ns.adobe.com/Extensibility/1.0/">
	<!ENTITY ns_ai "http://ns.adobe.com/AdobeIllustrator/10.0/">
	<!ENTITY ns_graphs "http://ns.adobe.com/Graphs/1.0/">
	<!ENTITY ns_vars "http://ns.adobe.com/Variables/1.0/">
	<!ENTITY ns_imrep "http://ns.adobe.com/ImageReplacement/1.0/">
	<!ENTITY ns_sfw "http://ns.adobe.com/SaveForWeb/1.0/">
	<!ENTITY ns_custom "http://ns.adobe.com/GenericCustomNamespace/1.0/">
	<!ENTITY ns_adobe_xpath "http://ns.adobe.com/XPath/1.0/">
]>
<svg version="1.1" xmlns:x="&ns_extend;" xmlns:i="&ns_ai;" xmlns:graph="&ns_graphs;"
   height="283.46" width="644.23"
	 xmlns="http://www.w3.org/2000/svg" xmlns:xlink="http://www.w3.org/1999/xlink" x="0px" y="0px" viewBox="0 0 644.23 283.46"
	 style="enable-background:new 0 0 644.23 283.46;" xml:space="preserve">
<style type="text/css">
	.st0{display:none;}
	.st1{display:inline;opacity:0.6;fill:#C12075;}
	.st2{display:inline;opacity:0.4;fill:#C12075;}
	.st3{fill:#70ACC0;}
	.st4{fill:#C12075;}
	.st5{display:inline;fill:none;stroke:#1D1D1B;stroke-width:0.15;stroke-miterlimit:10;}
</style>
<metadata>
	<sfw  xmlns="&ns_sfw;">
		<slices></slices>
		<sliceSourceBounds  bottomLeftOrigin="true" height="16432.54" width="16383" x="-8049" y="-8358.35"></sliceSourceBounds>
	</sfw>
</metadata>
<g id="Schutzraum" class="st0">
	<rect x="24.55" y="129.74" class="st1" width="24.32" height="76.61"/>
	<rect x="0.22" y="129.74" class="st1" width="24.32" height="76.61"/>
	<rect x="620.81" y="0.11" class="st1" width="24.32" height="283.36"/>
	<rect x="596.48" y="0.11" class="st1" width="24.32" height="283.36"/>
	<rect x="92.85" y="0.07" class="st1" width="24.32" height="76.61"/>
	<rect x="92.85" y="206.47" class="st1" width="24.32" height="76.61"/>
	<rect x="73.39" y="0.11" class="st2" width="19.35" height="282.97"/>
	<rect x="175.36" y="0.11" class="st2" width="19.35" height="282.97"/>
	<rect x="222.59" y="0.11" class="st2" width="19.35" height="282.97"/>
	<rect x="333.79" y="0.11" class="st2" width="19.35" height="282.97"/>
</g>
<g id="Marke">
	<path class="st3" d="M372.46,97.68c0,2.77-0.93,4.84-2.8,6.2s-4.44,2.04-7.73,2.04h-7.48V76.7h6.33c3.37,0,5.96,0.62,7.77,1.87
		c1.81,1.25,2.72,3.07,2.72,5.48c0,1.73-0.47,3.14-1.42,4.23c-0.95,1.09-2.2,1.82-3.76,2.19C370.34,91.2,372.46,93.6,372.46,97.68z
		 M358.4,79.72v9.43h3.65c1.64,0,2.92-0.42,3.84-1.25c0.92-0.83,1.38-2,1.38-3.5c0-1.64-0.5-2.83-1.51-3.57
		c-1.01-0.74-2.54-1.1-4.61-1.1H358.4z M366.72,101.61c1.1-0.81,1.66-2.15,1.66-4.01c0-3.68-1.99-5.52-5.99-5.52h-3.99v10.74h3.57
		C364.04,102.82,365.62,102.42,366.72,101.61z"/>
	<path class="st3" d="M392.42,96.07h-13c0.11,2.61,0.64,4.48,1.57,5.63s2.21,1.72,3.82,1.72c1.02,0,1.93-0.16,2.74-0.47
		c0.81-0.31,1.65-0.82,2.53-1.53l1.7,2.25c-2.1,1.87-4.47,2.8-7.14,2.8c-2.92,0-5.18-1.01-6.77-3.04c-1.6-2.02-2.4-4.86-2.4-8.52
		c0-3.65,0.76-6.55,2.29-8.69c1.53-2.14,3.65-3.21,6.37-3.21c2.69,0,4.76,0.96,6.2,2.87c1.45,1.91,2.17,4.64,2.17,8.18
		C392.5,94.67,392.47,95.33,392.42,96.07z M388.81,92.92c0-4.67-1.54-7.01-4.63-7.01c-1.42,0-2.53,0.59-3.36,1.76
		c-0.82,1.18-1.29,3.08-1.4,5.71h9.39V92.92z"/>
	<path class="st3" d="M407.75,83.33l-0.64,3.69c-0.54-0.17-1.12-0.26-1.74-0.26c-1.25,0-2.26,0.5-3.04,1.49
		c-0.78,0.99-1.39,2.51-1.85,4.54v13.12h-3.82V83.58h3.31l0.3,4.42c1.1-3.28,2.96-4.93,5.56-4.93
		C406.57,83.07,407.21,83.16,407.75,83.33z"/>
	<path class="st3" d="M411.83,105.24c-0.79-0.82-1.19-1.97-1.19-3.44V74.53l3.82-0.43v27.56c0,1.1,0.45,1.66,1.36,1.66
		c0.37,0,0.78-0.09,1.23-0.25l0.85,2.67c-0.91,0.48-1.86,0.72-2.85,0.72C413.7,106.47,412.62,106.06,411.83,105.24z"/>
	<path class="st3" d="M424.84,73.77c0.47,0.48,0.7,1.08,0.7,1.78c0,0.71-0.23,1.3-0.68,1.76c-0.45,0.47-1.06,0.7-1.83,0.7
		c-0.74,0-1.34-0.23-1.81-0.7c-0.47-0.47-0.7-1.05-0.7-1.76c0-0.71,0.23-1.3,0.7-1.78c0.47-0.48,1.07-0.72,1.81-0.72
		C423.78,73.05,424.38,73.29,424.84,73.77z M424.95,83.58v22.34h-3.82V83.58H424.95z"/>
	<path class="st3" d="M444.55,84.79c1.01,1.18,1.51,2.8,1.51,4.86v16.27h-3.82v-15.8c0-1.44-0.24-2.48-0.72-3.12
		c-0.48-0.64-1.22-0.96-2.21-0.96c-1.87,0-3.57,1.33-5.1,3.99v15.88h-3.82V83.58h3.31l0.3,3.31c1.73-2.58,3.85-3.86,6.37-3.86
		C442.15,83.03,443.55,83.62,444.55,84.79z"/>
	<path class="st3" d="M466.06,76.7v29.22h-3.95V76.7H466.06z"/>
	<path class="st3" d="M485.59,84.79c1.01,1.18,1.51,2.8,1.51,4.86v16.27h-3.82v-15.8c0-1.44-0.24-2.48-0.72-3.12
		c-0.48-0.64-1.22-0.96-2.21-0.96c-1.87,0-3.57,1.33-5.1,3.99v15.88h-3.82V83.58h3.31l0.3,3.31c1.73-2.58,3.85-3.86,6.37-3.86
		C483.2,83.03,484.59,83.62,485.59,84.79z"/>
	<path class="st3" d="M505.49,85.58l-1.61,2.25c-0.91-0.62-1.76-1.09-2.55-1.4c-0.79-0.31-1.63-0.47-2.5-0.47
		c-1.16,0-2.08,0.28-2.74,0.83c-0.66,0.55-1,1.31-1,2.27c0,0.93,0.32,1.67,0.96,2.21c0.64,0.54,1.85,1.09,3.63,1.66
		c2.24,0.71,3.87,1.57,4.88,2.59c1.02,1.02,1.53,2.42,1.53,4.21c0,2.1-0.76,3.74-2.29,4.95c-1.53,1.2-3.44,1.8-5.73,1.8
		c-3.03,0-5.59-1.01-7.69-3.02l1.95-2.12c1.78,1.44,3.67,2.17,5.65,2.17c1.25,0,2.25-0.31,3.02-0.93c0.76-0.62,1.15-1.49,1.15-2.59
		c0-0.79-0.13-1.43-0.4-1.91c-0.27-0.48-0.75-0.91-1.44-1.3c-0.69-0.38-1.71-0.79-3.04-1.21c-2.12-0.71-3.65-1.56-4.59-2.55
		c-0.93-0.99-1.4-2.25-1.4-3.78c0-1.19,0.31-2.25,0.93-3.19c0.62-0.93,1.49-1.67,2.59-2.21c1.1-0.54,2.38-0.81,3.82-0.81
		C501.19,83.03,503.48,83.88,505.49,85.58z"/>
	<path class="st3" d="M521.66,104.94c-1.42,1.02-2.99,1.53-4.71,1.53c-1.81,0-3.21-0.52-4.18-1.57c-0.98-1.05-1.47-2.52-1.47-4.42
		V86.47h-3.19v-2.89h3.19v-5.14l3.82-0.47v5.61h4.93l-0.42,2.89h-4.5v13.97c0,1.93,0.81,2.89,2.42,2.89c0.48,0,0.93-0.07,1.34-0.21
		c0.41-0.14,0.87-0.35,1.38-0.64L521.66,104.94z"/>
	<path class="st3" d="M528.17,73.77c0.47,0.48,0.7,1.08,0.7,1.78c0,0.71-0.23,1.3-0.68,1.76c-0.45,0.47-1.06,0.7-1.83,0.7
		c-0.74,0-1.34-0.23-1.81-0.7s-0.7-1.05-0.7-1.76c0-0.71,0.23-1.3,0.7-1.78c0.47-0.48,1.07-0.72,1.81-0.72
		C527.11,73.05,527.71,73.29,528.17,73.77z M528.28,83.58v22.34h-3.82V83.58H528.28z"/>
	<path class="st3" d="M545.12,104.94c-1.42,1.02-2.99,1.53-4.71,1.53c-1.81,0-3.21-0.52-4.18-1.57c-0.98-1.05-1.47-2.52-1.47-4.42
		V86.47h-3.19v-2.89h3.19v-5.14l3.82-0.47v5.61h4.93l-0.42,2.89h-4.5v13.97c0,1.93,0.81,2.89,2.42,2.89c0.48,0,0.93-0.07,1.34-0.21
		c0.41-0.14,0.87-0.35,1.38-0.64L545.12,104.94z"/>
	<path class="st3" d="M562.83,105.92h-3.31l-0.21-3.36c-1.56,2.61-3.64,3.91-6.24,3.91c-1.79,0-3.19-0.58-4.21-1.74
		c-1.02-1.16-1.53-2.73-1.53-4.71V83.58h3.82v16.1c0,1.3,0.25,2.26,0.74,2.87c0.49,0.61,1.24,0.91,2.23,0.91
		c1.9,0,3.52-1.25,4.88-3.74V83.58h3.82V105.92z"/>
	<path class="st3" d="M579.29,104.94c-1.42,1.02-2.99,1.53-4.71,1.53c-1.81,0-3.21-0.52-4.18-1.57c-0.98-1.05-1.47-2.52-1.47-4.42
		V86.47h-3.19v-2.89h3.19v-5.14l3.82-0.47v5.61h4.93l-0.42,2.89h-4.5v13.97c0,1.93,0.81,2.89,2.42,2.89c0.48,0,0.93-0.07,1.34-0.21
		c0.41-0.14,0.87-0.35,1.38-0.64L579.29,104.94z"/>
	<path class="st3" d="M597.04,96.07h-13c0.11,2.61,0.64,4.48,1.57,5.63c0.93,1.15,2.21,1.72,3.82,1.72c1.02,0,1.93-0.16,2.74-0.47
		c0.81-0.31,1.65-0.82,2.53-1.53l1.7,2.25c-2.1,1.87-4.47,2.8-7.14,2.8c-2.92,0-5.17-1.01-6.77-3.04c-1.6-2.02-2.4-4.86-2.4-8.52
		c0-3.65,0.76-6.55,2.29-8.69c1.53-2.14,3.65-3.21,6.37-3.21c2.69,0,4.76,0.96,6.2,2.87c1.45,1.91,2.17,4.64,2.17,8.18
		C597.13,94.67,597.1,95.33,597.04,96.07z M593.43,92.92c0-4.67-1.54-7.01-4.63-7.01c-1.42,0-2.53,0.59-3.36,1.76
		c-0.82,1.18-1.29,3.08-1.4,5.71h9.39V92.92z"/>
	<path class="st3" d="M368.72,129.67c1.59,2.01,2.38,4.9,2.38,8.66c0,3.62-0.81,6.49-2.42,8.6c-1.61,2.11-3.84,3.16-6.67,3.16
		c-2.86,0-5.09-1.03-6.69-3.1c-1.6-2.07-2.4-4.94-2.4-8.62c0-3.71,0.81-6.59,2.42-8.64c1.62-2.05,3.85-3.08,6.71-3.08
		C364.91,126.65,367.13,127.66,368.72,129.67z M358.23,131.81c-0.88,1.4-1.32,3.59-1.32,6.56c0,5.8,1.7,8.71,5.1,8.71
		c3.4,0,5.1-2.92,5.1-8.75c0-2.97-0.42-5.15-1.28-6.54c-0.85-1.39-2.11-2.08-3.78-2.08S359.11,130.41,358.23,131.81z"/>
	<path class="st3" d="M380.63,121.51c-0.5,0.51-0.74,1.3-0.74,2.38v3.31h5.01l-0.42,2.89h-4.59v19.45h-3.82v-19.45h-3.31v-2.89h3.31
		v-3.27c0-1.87,0.57-3.37,1.72-4.5c1.15-1.13,2.74-1.7,4.78-1.7c1.7,0,3.37,0.41,5.01,1.23l-1.15,2.63
		c-1.16-0.57-2.32-0.85-3.48-0.85C381.9,120.75,381.13,121,380.63,121.51z"/>
	<path class="st3" d="M412.59,149.54v-13.72h-10.62v13.72h-3.95v-29.22h3.95v12.27h10.62v-12.27h3.95v29.22H412.59z"/>
	<path class="st3" d="M437.5,139.69h-13c0.11,2.61,0.64,4.48,1.57,5.63c0.93,1.15,2.21,1.72,3.82,1.72c1.02,0,1.93-0.16,2.74-0.47
		c0.81-0.31,1.65-0.82,2.53-1.53l1.7,2.25c-2.1,1.87-4.47,2.8-7.14,2.8c-2.92,0-5.18-1.01-6.77-3.04c-1.6-2.02-2.4-4.86-2.4-8.52
		c0-3.65,0.76-6.55,2.29-8.69c1.53-2.14,3.65-3.21,6.37-3.21c2.69,0,4.76,0.96,6.2,2.87c1.45,1.91,2.17,4.64,2.17,8.18
		C437.58,138.29,437.55,138.95,437.5,139.69z M433.88,136.55c0-4.67-1.54-7.01-4.63-7.01c-1.42,0-2.53,0.59-3.36,1.76
		c-0.82,1.18-1.29,3.08-1.4,5.71h9.39V136.55z"/>
	<path class="st3" d="M456.03,146.47c0.25,0.44,0.65,0.77,1.19,1l-0.81,2.59c-1.1-0.17-1.97-0.51-2.59-1.02
		c-0.62-0.51-1.06-1.29-1.32-2.33c-1.44,2.26-3.47,3.4-6.07,3.4c-1.98,0-3.55-0.61-4.71-1.85c-1.16-1.23-1.74-2.88-1.74-4.95
		c0-2.38,0.78-4.19,2.33-5.44c1.56-1.25,3.78-1.87,6.67-1.87h2.89v-1.91c0-1.56-0.32-2.68-0.96-3.38c-0.64-0.69-1.68-1.04-3.12-1.04
		c-1.56,0-3.37,0.4-5.44,1.19l-0.93-2.67c2.49-1.02,4.81-1.53,6.97-1.53c4.84,0,7.26,2.42,7.26,7.26v10.53
		C455.65,145.35,455.78,146.03,456.03,146.47z M451.87,143.72v-5.27h-2.46c-3.68,0-5.52,1.54-5.52,4.63c0,1.33,0.3,2.35,0.89,3.06
		c0.59,0.71,1.45,1.06,2.55,1.06C449.31,147.21,450.82,146.05,451.87,143.72z"/>
	<path class="st3" d="M462.14,148.86c-0.79-0.82-1.19-1.97-1.19-3.44v-27.27l3.82-0.43v27.56c0,1.1,0.45,1.66,1.36,1.66
		c0.37,0,0.78-0.08,1.23-0.25l0.85,2.67c-0.91,0.48-1.86,0.72-2.85,0.72C464.01,150.1,462.94,149.68,462.14,148.86z"/>
	<path class="st3" d="M482.15,148.57c-1.42,1.02-2.99,1.53-4.71,1.53c-1.81,0-3.21-0.52-4.18-1.57c-0.98-1.05-1.47-2.52-1.47-4.42
		v-14.02h-3.19v-2.89h3.19v-5.14l3.82-0.47v5.61h4.93l-0.42,2.89h-4.5v13.97c0,1.93,0.81,2.89,2.42,2.89c0.48,0,0.93-0.07,1.34-0.21
		c0.41-0.14,0.87-0.35,1.38-0.64L482.15,148.57z"/>
	<path class="st3" d="M499.12,128.44c1.01,1.19,1.51,2.8,1.51,4.84v16.27h-3.82v-15.8c0-1.44-0.25-2.48-0.74-3.12
		c-0.5-0.64-1.23-0.96-2.19-0.96c-1.87,0-3.57,1.33-5.1,3.99v15.88h-3.82V118.2l3.82-0.42v12.61c0.82-1.22,1.73-2.14,2.72-2.78
		c0.99-0.64,2.14-0.96,3.44-0.96C496.72,126.65,498.11,127.25,499.12,128.44z"/>
	<path class="st3" d="M173.29,147.51c5.06,4.75,7.59,11.87,7.59,21.36c0,13.12-4.53,22.65-13.59,28.58
		c-9.06,5.94-21.58,8.9-37.57,8.9H92.8V76.67h32.23c16.37,0,28.95,2.72,37.76,8.15c8.81,5.43,13.21,13.77,13.21,25.02
		c0,7.37-2.16,13.4-6.46,18.08c-4.31,4.68-9.84,7.96-16.58,9.84C161.45,139.51,168.23,142.76,173.29,147.51z M119.79,96.16v33.36
		h9.74c12.62,0,18.93-5.74,18.93-17.24c0-5.74-1.66-9.87-4.97-12.37c-3.31-2.5-8.59-3.75-15.83-3.75H119.79z M147.24,182.18
		c3.94-2.75,5.9-7.62,5.9-14.62c0-13.12-7.25-19.68-21.74-19.68h-11.62v38.42h10.12C137.53,186.3,143.31,184.93,147.24,182.18z"/>
	<path class="st3" d="M221.7,76.67v129.68h-26.99V76.67H221.7z"/>
	<path class="st3" d="M305.83,206.35v-56.97h-35.98v56.97h-26.99V76.67h26.99v51.35h35.98V76.67h26.98v129.68H305.83z"/>
	<rect x="48.87" y="129.74" class="st4" width="24.32" height="76.61"/>
	<path class="st3" d="M377.47,177.62c1.94,1.12,3.4,2.65,4.39,4.6c0.99,1.95,1.48,4.16,1.48,6.62c0,2-0.31,4.06-0.92,6.18
		c-0.62,2.12-1.57,3.9-2.87,5.35c-1.3,1.45-2.91,2.18-4.83,2.18c-1.26,0-2.21-0.38-2.85-1.16c-0.64-0.77-1-1.69-1.08-2.77
		c-1.36,2.57-3.14,3.85-5.35,3.85c-1.51,0-2.73-0.57-3.66-1.71c-0.92-1.14-1.39-2.69-1.39-4.64c0-1.92,0.31-3.81,0.92-5.66
		c0.62-1.85,1.6-3.39,2.96-4.62c1.36-1.23,3.09-1.85,5.2-1.85c1.77,0,3.49,0.49,5.16,1.46l-1.5,10.93
		c-0.05,0.62-0.08,1.05-0.08,1.31c0,0.69,0.12,1.24,0.37,1.64c0.24,0.4,0.69,0.6,1.33,0.6c1.18,0,2.17-0.59,2.98-1.77
		c0.81-1.18,1.4-2.64,1.79-4.37c0.39-1.73,0.58-3.43,0.58-5.1c0-3.16-0.85-5.61-2.54-7.35c-1.69-1.74-4.12-2.62-7.28-2.62
		c-3.47,0-6.31,0.92-8.53,2.77c-2.22,1.85-3.82,4.13-4.81,6.85c-0.99,2.72-1.48,5.42-1.48,8.08c0,2.28,0.42,4.32,1.25,6.1
		c0.83,1.78,2.05,3.18,3.64,4.2c1.59,1.01,3.49,1.52,5.7,1.52c2.26,0,4.53-0.44,6.81-1.31l0.58,2.66c-1.31,0.49-2.55,0.85-3.74,1.1
		c-1.18,0.24-2.48,0.37-3.89,0.37c-2.69,0-5.08-0.62-7.14-1.87c-2.07-1.25-3.67-2.97-4.81-5.18c-1.14-2.21-1.71-4.73-1.71-7.58
		c0-3.08,0.64-6.2,1.92-9.35c1.28-3.16,3.3-5.8,6.04-7.93c2.75-2.13,6.18-3.19,10.32-3.19C373.19,175.94,375.54,176.5,377.47,177.62
		z M368.58,198.75c0.71-0.81,1.24-1.65,1.6-2.52l1.39-9.39c-0.64-0.28-1.34-0.42-2.08-0.42c-2.13,0-3.65,0.99-4.56,2.98
		c-0.91,1.99-1.37,4.27-1.37,6.83c0,2.49,0.82,3.73,2.46,3.73C367.02,199.97,367.87,199.56,368.58,198.75z"/>
	<path class="st3" d="M406.56,178.84c1.06,0.46,2.03,1.16,2.91,2.09l-2.07,1.99c-0.74-0.64-1.46-1.1-2.15-1.39
		c-0.69-0.29-1.46-0.44-2.31-0.44c-2.07,0-3.78,0.78-5.12,2.33c-1.34,1.55-2.31,3.49-2.91,5.8c-0.6,2.31-0.9,4.65-0.9,7.02
		c0,2.47,0.46,4.29,1.38,5.46c0.92,1.17,2.17,1.75,3.77,1.75c1.06,0,2-0.19,2.81-0.58c0.81-0.39,1.73-0.95,2.77-1.7l1.51,2.39
		c-2.23,1.97-4.72,2.95-7.45,2.95c-2.61,0-4.68-0.92-6.22-2.75c-1.54-1.83-2.31-4.42-2.31-7.77c0-2.82,0.45-5.59,1.35-8.33
		c0.9-2.74,2.3-5.01,4.19-6.82c1.89-1.81,4.24-2.71,7.05-2.71C404.26,178.14,405.5,178.37,406.56,178.84z"/>
	<path class="st3" d="M424.64,185.93c0.82,0.92,1.24,2.16,1.24,3.73c0,0.59-0.03,1.04-0.08,1.36l-2.11,15.03h-3.47l2.07-14.95
		c0.05-0.58,0.08-0.97,0.08-1.16c0-1.62-0.65-2.43-1.95-2.43c-1.89,0-3.87,1.91-5.94,5.74l-1.75,12.8h-3.47l4.15-29.42l3.51-0.36
		l-1.8,12.56c1.78-2.84,3.84-4.27,6.18-4.27C422.7,184.56,423.81,185.01,424.64,185.93z"/>
	<path class="st3" d="M446.12,186.23l-2.15,15.07c-0.05,0.53-0.08,0.89-0.08,1.08c0,0.43,0.08,0.78,0.24,1.06
		c0.16,0.28,0.45,0.5,0.88,0.66l-1.12,2.43c-0.98-0.13-1.75-0.47-2.29-1.02c-0.55-0.54-0.87-1.34-0.98-2.37
		c-0.82,1.09-1.69,1.93-2.59,2.51c-0.9,0.58-1.93,0.88-3.07,0.88c-1.89,0-3.36-0.69-4.42-2.05c-1.06-1.37-1.59-3.21-1.59-5.52
		c0-2.23,0.37-4.45,1.12-6.66c0.74-2.21,1.93-4.04,3.55-5.5c1.62-1.46,3.64-2.19,6.06-2.19
		C441.74,184.6,443.89,185.14,446.12,186.23z M435.68,189.12c-1.06,1.16-1.85,2.63-2.35,4.41s-0.76,3.59-0.76,5.42
		c0,3.19,1.04,4.78,3.11,4.78c0.96,0,1.82-0.32,2.59-0.96c0.77-0.64,1.59-1.58,2.47-2.83l1.67-12.04c-0.85-0.34-1.77-0.52-2.75-0.52
		C438.07,187.39,436.74,187.96,435.68,189.12z"/>
	<path class="st3" d="M461.91,184.87l-1.08,3.35c-0.59-0.13-1.1-0.2-1.55-0.2c-1.17,0-2.2,0.58-3.09,1.73
		c-0.89,1.16-1.7,2.84-2.41,5.04l-1.55,11.24h-3.47l2.95-21.01h2.99l-0.28,4.07c0.72-1.49,1.54-2.61,2.47-3.37
		c0.93-0.76,1.98-1.13,3.15-1.13C460.62,184.6,461.24,184.69,461.91,184.87z"/>
	<path class="st3" d="M468.3,185.03l-2.95,21.01h-3.47l2.95-21.01H468.3z M465.71,179.25c-0.4-0.4-0.6-0.92-0.6-1.55
		c0-0.77,0.25-1.4,0.76-1.89s1.12-0.74,1.84-0.74c0.66,0,1.19,0.2,1.59,0.6c0.4,0.4,0.6,0.92,0.6,1.55c0,0.77-0.25,1.4-0.76,1.9
		c-0.5,0.49-1.12,0.74-1.83,0.74C466.63,179.85,466.1,179.65,465.71,179.25z"/>
	<path class="st3" d="M475.68,201.02c-0.03,0.19-0.04,0.44-0.04,0.76c0,0.61,0.14,1.07,0.42,1.38c0.28,0.3,0.71,0.46,1.29,0.46
		c0.43,0,0.84-0.07,1.26-0.2c0.41-0.13,0.9-0.34,1.45-0.64l1.08,2.35c-1.36,0.93-2.8,1.4-4.35,1.4c-1.44,0-2.56-0.41-3.39-1.22
		c-0.82-0.81-1.24-1.92-1.24-3.33c0-0.21,0.03-0.59,0.08-1.12l1.83-13.07h-3.19l0.4-2.75h3.31l1.24-4.86l2.83-0.32l-0.72,5.18h4.42
		l-0.8,2.75h-4.03L475.68,201.02z"/>
	<path class="st3" d="M495.71,195.68c-2.22,1.19-5.32,2.03-9.31,2.51v0.24c0,3.43,1.29,5.14,3.87,5.14c0.88,0,1.71-0.15,2.51-0.46
		c0.8-0.3,1.65-0.78,2.55-1.41l1.47,2.31c-2.21,1.68-4.5,2.51-6.9,2.51c-2.26,0-4.01-0.71-5.24-2.13c-1.24-1.42-1.85-3.39-1.85-5.92
		c0-2.21,0.35-4.37,1.06-6.5c0.7-2.13,1.83-3.89,3.37-5.28c1.54-1.39,3.47-2.09,5.78-2.09c1.91,0,3.39,0.5,4.44,1.49
		c1.05,1,1.57,2.24,1.57,3.73C499.04,192.53,497.93,194.48,495.71,195.68z M488.62,189.74c-1.02,1.57-1.69,3.5-2.01,5.78
		c3.06-0.37,5.3-0.96,6.74-1.77c1.43-0.81,2.15-2.08,2.15-3.81c0-0.74-0.21-1.35-0.64-1.83c-0.43-0.48-1.09-0.72-1.99-0.72
		C491.05,187.39,489.64,188.17,488.62,189.74z M496.89,174.27l1.31,2.87l-8.01,3.43l-0.92-1.83L496.89,174.27z"/>
</g>
<g id="Hilfslinien" class="st0">
	<line class="st5" x1="-17.97" y1="76.51" x2="661.23" y2="76.7"/>
	<line class="st5" x1="-17.97" y1="105.85" x2="661.23" y2="106.04"/>
	<line class="st5" x1="-17.97" y1="127.78" x2="661.23" y2="127.96"/>
	<line class="st5" x1="-17.97" y1="129.45" x2="661.23" y2="129.63"/>
	<line class="st5" x1="-17.97" y1="147.67" x2="661.23" y2="147.85"/>
	<line class="st5" x1="-17.97" y1="176.84" x2="661.23" y2="177.02"/>
	<line class="st5" x1="-17.97" y1="206.18" x2="661.23" y2="206.36"/>
	<line class="st5" x1="-17.97" y1="149.32" x2="661.23" y2="149.5"/>
</g>
</svg>
