<svg id="Ebene_1" data-name="Ebene 1" xmlns="http://www.w3.org/2000/svg" width="644.23" height="283.46" viewBox="0 0 644.23 283.46">
  <defs>
    <style>
      .cls-1 {
        fill: #3c3c3b;
      }
    </style>
  </defs>
  <g>
    <path class="cls-1" d="M61.73,133.52l-21,35.3V206.1H85.68a92.59,92.59,0,0,0,11.43-.75l12.71-23.61c-1.08.54-2.18,1.07-3.33,1.54a50.32,50.32,0,0,1-19.06,3.41H61.73ZM148.14,113h.4a58.66,58.66,0,0,0-11.27-16.68,61.46,61.46,0,0,0-21.42-14.16Q103,76.87,85.68,76.87H56.32V96.23H83.9l0,0h3.56a52.61,52.61,0,0,1,19.06,3.24,40.7,40.7,0,0,1,14.34,9.18,39.08,39.08,0,0,1,9,14.16,53,53,0,0,1,3,18.43Zm81.08,38.76L240.58,133h-71V78.45h-.92l-20.06,33.74V206.1h21V151.72Zm88,54.38L272.48,78.45H253.17l3.92,14,20.49,59.45H229.1l-10.26,18.19h65l12.41,36Z"/>
    <path class="cls-1" d="M556.78,205.92V194.58a6.8,6.8,0,0,1,1.75-5.07,6.9,6.9,0,0,1,5.09-1.73h1.2v-2.64h-.66c-2.82,0-4.89.71-6.21,2.15s-2,3.66-2,6.67h.24v-8.59h-2.34v20.55ZM533,202.84a7.55,7.55,0,0,1-2.7-3,9.25,9.25,0,0,1-.93-4.17,9.16,9.16,0,0,1,.95-4.22,7.32,7.32,0,0,1,2.74-3,7.85,7.85,0,0,1,4.23-1.11,8,8,0,0,1,4.28,1.11,7.39,7.39,0,0,1,2.74,3,9.83,9.83,0,0,1,0,8.39,7.69,7.69,0,0,1-2.7,3,7.86,7.86,0,0,1-4.34,1.14,7.76,7.76,0,0,1-4.29-1.14m9,2.83a10.09,10.09,0,0,0,3.4-2.45,10.52,10.52,0,0,0,2.08-3.43,11.36,11.36,0,0,0,.69-3.89v-.54a11.26,11.26,0,0,0-.71-3.91,10.4,10.4,0,0,0-5.52-5.87,11,11,0,0,0-4.61-.91,10.82,10.82,0,0,0-4.56.91,10.52,10.52,0,0,0-5.54,5.87,10.85,10.85,0,0,0-.74,3.91v.54a10.93,10.93,0,0,0,.72,3.89,10.75,10.75,0,0,0,2.1,3.43,10,10,0,0,0,3.38,2.45,11,11,0,0,0,4.64.92,11.25,11.25,0,0,0,4.67-.92m-19.12-20.3H508.91v2.21h13.91Zm0,20.79v-2.64h-3.7a3.73,3.73,0,0,1-2.75-1,3.64,3.64,0,0,1-1-2.74V178.88h-2.8V199.4a8.11,8.11,0,0,0,.85,4,4.74,4.74,0,0,0,2.41,2.12,10,10,0,0,0,3.69.62Zm-23.36-.47a5.94,5.94,0,0,0,2.53-2.31,8.47,8.47,0,0,0,1.09-3.83l-.86-1.2a6.27,6.27,0,0,1-1,3.47,4.83,4.83,0,0,1-2.21,1.79,7.44,7.44,0,0,1-2.76.53,5.54,5.54,0,0,1-3.7-1.15,3.84,3.84,0,0,1-1.36-3.09,4,4,0,0,1,1.31-3.09,5.39,5.39,0,0,1,3.75-1.18h6.21v-2.22h-6a11.36,11.36,0,0,0-4.37.76,5.89,5.89,0,0,0-2.76,2.2,6.19,6.19,0,0,0-.95,3.49,6.68,6.68,0,0,0,.91,3.58,5.88,5.88,0,0,0,2.59,2.25,9,9,0,0,0,3.84.78,8.37,8.37,0,0,0,3.73-.78m5.56.23V192.71a9.26,9.26,0,0,0-.89-4.37,5.39,5.39,0,0,0-2.82-2.43,13.72,13.72,0,0,0-5.07-.77c-.6,0-1.21,0-1.85,0s-1.25,0-1.84.09l-1.75.16V188c.54-.05,1.17-.09,1.88-.13l2.26-.1c.79,0,1.57,0,2.35,0a5.07,5.07,0,0,1,3.73,1.22,4.83,4.83,0,0,1,1.2,3.52v7.31h.47v6.17Zm-27.32,0V194.58a6.8,6.8,0,0,1,1.75-5.07,6.91,6.91,0,0,1,5.09-1.73h1.21v-2.64h-.66c-2.83,0-4.9.71-6.22,2.15s-2,3.66-2,6.67h.23v-8.59h-2.33v20.55Zm-13.44-.15a8.35,8.35,0,0,0,3.15-2.31A7.78,7.78,0,0,0,469,199.9h-2.72a5,5,0,0,1-2.06,2.9,8.33,8.33,0,0,1-8.53.09,6.66,6.66,0,0,1-2.45-3,11,11,0,0,1-.8-4.25,10.76,10.76,0,0,1,.8-4.24,6.92,6.92,0,0,1,2.39-3,6.75,6.75,0,0,1,4-1.13,6.92,6.92,0,0,1,3.83,1,6.29,6.29,0,0,1,2.33,2.73,9.52,9.52,0,0,1,.8,4l.74-1.13H451v2.25h18.38v-1.51a10.9,10.9,0,0,0-1.09-4.8,9.17,9.17,0,0,0-3.25-3.67,9.46,9.46,0,0,0-5.38-1.44,10,10,0,0,0-4.41.91,9.14,9.14,0,0,0-3.13,2.43,10.11,10.11,0,0,0-1.84,3.42,12.89,12.89,0,0,0-.6,3.89v.54a13,13,0,0,0,.6,3.93,10.25,10.25,0,0,0,1.84,3.43,8.82,8.82,0,0,0,3.19,2.45,10.65,10.65,0,0,0,4.59.92,11,11,0,0,0,4.35-.82M444,177.56h-5.9v2.37H444Zm0,0h-2.91v28.36H444Zm-13.64,28.21a8.28,8.28,0,0,0,3.15-2.31,7.68,7.68,0,0,0,1.63-3.56h-2.72a5,5,0,0,1-2.06,2.9,8.33,8.33,0,0,1-8.53.09,6.65,6.65,0,0,1-2.44-3,11,11,0,0,1-.8-4.25,10.76,10.76,0,0,1,.8-4.24,6.85,6.85,0,0,1,2.39-3,6.75,6.75,0,0,1,4-1.13,7,7,0,0,1,3.83,1,6.29,6.29,0,0,1,2.33,2.73,9.52,9.52,0,0,1,.79,4l.74-1.13H417.08v2.25h18.38v-1.51a10.76,10.76,0,0,0-1.09-4.8,9.07,9.07,0,0,0-3.24-3.67,9.48,9.48,0,0,0-5.38-1.44,10,10,0,0,0-4.41.91,9.14,9.14,0,0,0-3.13,2.43,10.13,10.13,0,0,0-1.85,3.42,12.89,12.89,0,0,0-.6,3.89v.54a13,13,0,0,0,.6,3.93,10.28,10.28,0,0,0,1.85,3.43,8.82,8.82,0,0,0,3.19,2.45,10.63,10.63,0,0,0,4.58.92,11,11,0,0,0,4.35-.82m-22.92-.14a8.61,8.61,0,0,0,3.36-2.68,7.45,7.45,0,0,0,1.46-4.06h-2.8a5.28,5.28,0,0,1-1,2.57,6.22,6.22,0,0,1-2.29,1.84,7.56,7.56,0,0,1-3.33.68,6.62,6.62,0,0,1-6.56-4.21,10.53,10.53,0,0,1-.82-4.18,10.33,10.33,0,0,1,.82-4.18,6.76,6.76,0,0,1,2.43-3,7,7,0,0,1,4.06-1.11,6.62,6.62,0,0,1,4.48,1.42,5.78,5.78,0,0,1,2,3.56H412a8,8,0,0,0-1.47-4,8.19,8.19,0,0,0-3.25-2.64,10.68,10.68,0,0,0-4.56-.93,10.22,10.22,0,0,0-4.45.91,9.37,9.37,0,0,0-3.21,2.45,10.5,10.5,0,0,0-1.92,3.42,11.9,11.9,0,0,0-.64,3.87v.54a11.91,11.91,0,0,0,.64,3.85,10.84,10.84,0,0,0,1.92,3.47,9.11,9.11,0,0,0,3.21,2.49,10.42,10.42,0,0,0,4.52.92,10.86,10.86,0,0,0,4.63-1m-23.28,0a8.61,8.61,0,0,0,3.36-2.68,7.37,7.37,0,0,0,1.46-4.06h-2.8a5.19,5.19,0,0,1-1,2.57,6.07,6.07,0,0,1-2.29,1.84,7.51,7.51,0,0,1-3.32.68,6.65,6.65,0,0,1-6.57-4.21,10.71,10.71,0,0,1-.82-4.18,10.5,10.5,0,0,1,.82-4.18,6.76,6.76,0,0,1,2.43-3,7,7,0,0,1,4.06-1.11,6.64,6.64,0,0,1,4.49,1.42,5.78,5.78,0,0,1,2,3.56h2.8A8,8,0,0,0,384,185.6a10.75,10.75,0,0,0-4.57-.93,10.22,10.22,0,0,0-4.45.91,9.47,9.47,0,0,0-3.21,2.45,10.69,10.69,0,0,0-1.92,3.42,11.9,11.9,0,0,0-.64,3.87v.54a11.91,11.91,0,0,0,.64,3.85,11,11,0,0,0,1.92,3.47,9.2,9.2,0,0,0,3.21,2.49,10.43,10.43,0,0,0,4.53.92,10.79,10.79,0,0,0,4.62-1m-23.74-8.72-1-2.68H346.21l-1,2.68Zm-17.8,9,9.68-26.5-1.67.82h4.08l-1.6-.82,10.07,26.5h3l-10.81-28.36h-5.28l-10.45,28.36Z"/>
    <path class="cls-1" d="M589,164.64V152.55a6.6,6.6,0,0,1,1.63-4.64,5.7,5.7,0,0,1,4.39-1.77,5.34,5.34,0,0,1,4.08,1.59,6,6,0,0,1,1.52,4.36v12.55h2.88V152.71a10.7,10.7,0,0,0-1.93-6.8,6.75,6.75,0,0,0-5.65-2.45h-.16a7.23,7.23,0,0,0-4.25,1.18A7.08,7.08,0,0,0,589,148a13.84,13.84,0,0,0-.83,5l.85-.66v-16h-2.91v28.37Zm-8.35-20.56H566.73v2.22h13.91Zm0,20.79v-2.64H577a3.77,3.77,0,0,1-2.76-.95,3.67,3.67,0,0,1-1-2.74V137.59h-2.8v20.52a8.11,8.11,0,0,0,.85,4,4.78,4.78,0,0,0,2.41,2.12,10,10,0,0,0,3.69.62Zm-18.07-28.6h-5.91v2.37h5.91Zm0,0h-2.92v28.37h2.92ZM546.83,164.4a5.88,5.88,0,0,0,2.53-2.31,8.35,8.35,0,0,0,1.08-3.83l-.85-1.2a6.36,6.36,0,0,1-1,3.48,4.88,4.88,0,0,1-2.22,1.78,7.4,7.4,0,0,1-2.76.53A5.53,5.53,0,0,1,540,161.7a3.84,3.84,0,0,1-1.36-3.09,4,4,0,0,1,1.31-3.09,5.35,5.35,0,0,1,3.74-1.18h6.22v-2.22h-6a11.36,11.36,0,0,0-4.37.76,6,6,0,0,0-2.76,2.2,6.14,6.14,0,0,0-1,3.49,6.66,6.66,0,0,0,.91,3.58,5.79,5.79,0,0,0,2.58,2.25,9,9,0,0,0,3.85.78,8.37,8.37,0,0,0,3.73-.78m5.56.24V151.43a9.15,9.15,0,0,0-.9-4.38,5.33,5.33,0,0,0-2.81-2.43,14,14,0,0,0-5.07-.77c-.6,0-1.22,0-1.85,0s-1.25,0-1.85.09l-1.74.16v2.56c.54-.05,1.17-.09,1.88-.13l2.25-.1c.79,0,1.58,0,2.35,0a5,5,0,0,1,3.74,1.23,4.79,4.79,0,0,1,1.2,3.51v7.31h.47v6.18ZM527,164.48a8.18,8.18,0,0,0,3.15-2.31,7.68,7.68,0,0,0,1.63-3.56h-2.72a5,5,0,0,1-2.06,2.9,7.21,7.21,0,0,1-4.35,1.22,7.3,7.3,0,0,1-4.18-1.12,6.75,6.75,0,0,1-2.44-3.05,10.89,10.89,0,0,1-.8-4.26,10.5,10.5,0,0,1,.8-4.23,6.82,6.82,0,0,1,2.39-3,6.75,6.75,0,0,1,4-1.12,7,7,0,0,1,3.83,1,6.26,6.26,0,0,1,2.33,2.72,9.52,9.52,0,0,1,.79,4l.74-1.13H513.76v2.26h18.38v-1.52a10.89,10.89,0,0,0-1.08-4.8,9.24,9.24,0,0,0-3.25-3.67,9.48,9.48,0,0,0-5.38-1.44,10.09,10.09,0,0,0-4.41.91,9.14,9.14,0,0,0-3.13,2.43,10.31,10.31,0,0,0-1.85,3.42,12.89,12.89,0,0,0-.6,3.89v.54a13,13,0,0,0,.6,3.93,10.61,10.61,0,0,0,1.85,3.44,8.8,8.8,0,0,0,3.19,2.44,10.63,10.63,0,0,0,4.58.92,10.85,10.85,0,0,0,4.35-.82m-23.23-15.23H485.9v2.64h17.88Zm-17.22-13h-2.95v28.37h2.95Zm19.51,0h-2.95v28.37h2.95Zm-39.91,0h-5.91v2.37h5.91Zm0,0h-2.91v28.37h2.91ZM449.84,164.4a5.88,5.88,0,0,0,2.53-2.31,8.47,8.47,0,0,0,1.09-3.83l-.86-1.2a6.36,6.36,0,0,1-1,3.48,4.88,4.88,0,0,1-2.22,1.78,7.4,7.4,0,0,1-2.76.53A5.53,5.53,0,0,1,443,161.7a3.84,3.84,0,0,1-1.36-3.09,4,4,0,0,1,1.3-3.09,5.39,5.39,0,0,1,3.75-1.18h6.22v-2.22h-6a11.36,11.36,0,0,0-4.37.76,6,6,0,0,0-2.76,2.2,6.14,6.14,0,0,0-1,3.49,6.66,6.66,0,0,0,.91,3.58,5.79,5.79,0,0,0,2.58,2.25,9,9,0,0,0,3.85.78,8.37,8.37,0,0,0,3.73-.78m5.56.24V151.43a9.15,9.15,0,0,0-.9-4.38,5.33,5.33,0,0,0-2.81-2.43,14,14,0,0,0-5.08-.77c-.59,0-1.21,0-1.84,0s-1.25,0-1.85.09l-1.75.16v2.56c.55-.05,1.18-.09,1.89-.13l2.25-.1c.79,0,1.58,0,2.36,0a5,5,0,0,1,3.73,1.23,4.79,4.79,0,0,1,1.2,3.51v7.31h.47v6.18Zm-20.79-20.56H420.7v2.22h13.91Zm0,20.79v-2.64h-3.69a3.81,3.81,0,0,1-2.76-.95,3.67,3.67,0,0,1-1-2.74V137.59h-2.8v20.52a8.11,8.11,0,0,0,.85,4,4.78,4.78,0,0,0,2.41,2.12,10.06,10.06,0,0,0,3.7.62Zm-19.47-25.16a2.23,2.23,0,0,0,0-2.84,2,2,0,0,0-1.55-.56,2.08,2.08,0,0,0-1.58.56,2.2,2.2,0,0,0,0,2.84,2,2,0,0,0,1.58.56,2,2,0,0,0,1.55-.56m.7,4.37h-6.18v2.33h6.18Zm0,0H413v20.56h2.88Zm-25.65,17.14a7,7,0,0,1-2.58-2.92,10.27,10.27,0,0,1,0-8.41,6.94,6.94,0,0,1,6.49-4,7.7,7.7,0,0,1,3.73.89,7,7,0,0,1,2.62,2.49,6.93,6.93,0,0,1,1,3.73v1.9a7.56,7.56,0,0,1-1,3.89,6.83,6.83,0,0,1-2.62,2.58,7.6,7.6,0,0,1-3.75.92,7.17,7.17,0,0,1-3.89-1.05m9.43,10.41a6.7,6.7,0,0,0,3.47-3.3,13.72,13.72,0,0,0,1.09-6v-18.3h-2.29v8.35l.93.51a11.1,11.1,0,0,0-1.22-5,8.43,8.43,0,0,0-3.17-3.34,9,9,0,0,0-4.74-1.21,9.79,9.79,0,0,0-4.1.84,9.1,9.1,0,0,0-3.13,2.29,10.79,10.79,0,0,0-2,3.34,11.16,11.16,0,0,0-.7,3.94v.55a11.41,11.41,0,0,0,.7,4,11.2,11.2,0,0,0,2,3.4,9.17,9.17,0,0,0,7.11,3.21,9,9,0,0,0,4.51-1.13,8.19,8.19,0,0,0,3.15-3.24,11,11,0,0,0,1.24-5.08l-1.09,2.88v4.12a11.11,11.11,0,0,1-.75,4.45,4.77,4.77,0,0,1-2.51,2.47,11.93,11.93,0,0,1-4.7.77c-.91,0-1.87,0-2.9-.13s-2-.2-2.93-.33v2.48c.88.13,1.81.24,2.78.33s1.93.14,2.89.14a16.05,16.05,0,0,0,6.36-1.05m-22.95-31.92a2.23,2.23,0,0,0,0-2.84,2,2,0,0,0-1.56-.56,2.07,2.07,0,0,0-1.57.56,2.2,2.2,0,0,0,0,2.84,2,2,0,0,0,1.57.56,2,2,0,0,0,1.56-.56m.7,4.37h-6.18v2.33h6.18Zm0,0h-2.88v20.56h2.88Zm-31.63-7.93h-2.95v28.64h2.95Zm6.64,28.64a16.76,16.76,0,0,0,6.67-1.22,13.22,13.22,0,0,0,4.64-3.27,13.49,13.49,0,0,0,2.72-4.52,14.66,14.66,0,0,0,.9-5V150a14.8,14.8,0,0,0-.9-5.06,12.78,12.78,0,0,0-2.76-4.48,13.19,13.19,0,0,0-4.66-3.17,17.08,17.08,0,0,0-6.61-1.17H345v2.72h7.73a13.53,13.53,0,0,1,5,.86,9.72,9.72,0,0,1,3.63,2.45,10.67,10.67,0,0,1,2.23,3.69,13.91,13.91,0,0,1,0,9,10.65,10.65,0,0,1-2.21,3.71,10.54,10.54,0,0,1-3.63,2.55,12.66,12.66,0,0,1-5,.93H345v2.72Z"/>
  </g>
</svg>
