<?xml version="1.0" encoding="utf-8"?>
<!-- Generator: Adobe Illustrator 26.5.2, SVG Export Plug-In . SVG Version: 6.00 Build 0)  -->
<svg version="1.1" xmlns="http://www.w3.org/2000/svg" xmlns:xlink="http://www.w3.org/1999/xlink" x="0px" y="0px"
	 viewBox="0 0 2000 735.2" style="enable-background:new 0 0 2000 735.2;" xml:space="preserve">
<style type="text/css">
	.st0{fill-rule:evenodd;clip-rule:evenodd;}
	.st1{fill:#7E898F;}
	.st2{fill:#1D1D1B;}
	.st3{fill-rule:evenodd;clip-rule:evenodd;fill:#1D1D1B;}
</style>
<g id="Ebene_1">
	<g id="Ebene_1_00000094576131088827182680000013505142393785801917_">
		<polygon points="1688.6,266.5 1750.8,266.5 1750.8,240.1 1598.7,240.1 1598.7,266.5 1660.2,266.5 1660.2,495 1688.6,495 		"/>
		<rect x="1463" y="240.1" width="28.4" height="254.9"/>
		<path class="st0" d="M1033.2,422.7H924.4L893.6,495h-31.1l112.3-254.9l5.4-11.9l5.2,11.9L1094.7,495h-31.4L1033.2,422.7z
			 M1022.1,396.3l-42.6-102.1l-43.6,102.1H1022.1"/>
		<path class="st0" d="M1216.4,266.5v91.6h35.6c32.8,0,55.3-15.1,55.3-47.5s-26.3-44.1-55.7-44.1H1216.4z M1283.5,379.3l62,115.8
			h-33l-57.9-111.9h-38.3V495H1188V240.1h67.3c41.9,0,80.4,19.2,80.4,70.5C1335.6,351.2,1309.9,371.5,1283.5,379.3"/>
		<polygon points="1853.5,495 1991.4,495 1991.4,468.6 1881.9,468.6 1881.9,368.6 1975.8,368.6 1975.8,342.2 1881.9,342.2 
			1881.9,266.5 1987.3,266.5 1987.3,240.1 1853.5,240.1 		"/>
		<polygon points="1934.5,147.5 1894.2,203 1911.1,212.4 1962.8,160.4 		"/>
		<polygon points="611.6,343.6 698.1,343.6 698.1,369.9 611.6,369.9 611.6,495 583.2,495 583.2,240.1 611.6,240.1 		"/>
		<rect x="736.8" y="240.1" width="28.4" height="254.9"/>
		<path d="M471.3,259.8C448.9,243,424.1,235,396,235c-82.8,0-134.6,61.8-134.6,133.6S313.5,500.2,396,500.2c26.8,0,53.5-9,75.3-24.8
			v-34.1c-20.2,20.2-47.6,33.2-76.2,33.2c-61.9,0-102.8-51.1-102.8-106.9s40.1-106.9,102.1-106.9c29.2,0,56.7,12.4,76.9,33.2V259.8"
			/>
	</g>
	<g id="Ebene_2_00000112591488512532782800000004728944951798401952_">
		<g>
			<path class="st1" d="M710.1,625.7c0,9.2-6.8,16.1-15.9,16.1c-8.9,0-15.7-6.9-15.7-16v-36.7h-10v36.8c0,14.4,11.1,25.2,25.7,25.2
				c15,0,25.8-10.6,25.8-25.2v-36.8h-9.9L710.1,625.7L710.1,625.7z"/>
			<polygon class="st1" points="781.3,629.7 740.5,589.2 740.3,589 736.9,589 736.9,649.8 746.8,649.8 746.8,609.4 787.7,649.9 
				787.9,650 791.3,650 791.3,589.2 781.3,589.2 			"/>
			<rect x="809.3" y="589.2" class="st1" width="9.9" height="60.6"/>
			<polygon class="st1" points="860.3,631.7 841.8,589.5 841.7,589.2 830.9,589.2 858.2,650.1 858.3,650.4 861.8,650.4 889.3,589.2 
				878.6,589.2 			"/>
			<polygon class="st1" points="910.9,623.3 933.6,623.3 933.6,614 910.9,614 910.9,598.7 935.9,598.7 935.9,589.2 901,589.2 
				901,649.8 936.3,649.8 936.3,640.3 910.9,640.3 			"/>
			<path class="st1" d="M990.3,607.6c0-11.2-7.9-18.4-20.2-18.4h-18.4v60.6h9.9v-24.9h5.1l16.5,24.9h11.1L977,624.2
				C985.5,622.2,990.3,616.2,990.3,607.6z M961.6,598h8.4c6.5,0,10.7,3.7,10.7,9.4s-4.1,9.3-10.7,9.3h-8.4V598z"/>
			<path class="st1" d="M1025.4,614.1c-5.8-2-11.2-4-11.2-9.3c0-4.7,4.2-8.2,9.7-8.2c4.8,0,10.7,2.1,14.9,5.3l0.8,0.6V592l-0.3-0.2
				c-5.3-3-10.1-4.4-15.6-4.4c-11.2,0-19.3,7.1-19.3,16.9c0,11.2,7.9,15.1,16.6,18.5c7.4,2.8,11.6,5.3,11.6,9.8
				c0,5.7-3.8,9.4-9.8,9.4c-6.9,0-13.6-4-18.1-7.3l-0.9-0.6l0.1,10.7v0.3l0.2,0.2c4.5,3,10.3,6,18.4,6c12,0,20.1-7.4,20.1-18.5
				C1042.7,624.3,1037.1,618.2,1025.4,614.1z"/>
			<rect x="1057.7" y="589.2" class="st1" width="9.9" height="60.6"/>
			<polygon class="st1" points="1080.4,598.3 1097.5,598.3 1097.5,649.8 1107.5,649.8 1107.5,598.3 1124.3,598.3 1124.3,589.2 
				1080.4,589.2 			"/>
			<path class="st1" d="M1155.7,588.3h-2.7l-27.9,61.5h10.9l6.3-14.6h24.2l6.3,14.6h10.8l-27.7-61.2L1155.7,588.3z M1162.2,625.5
				h-15.8l7.9-18.2L1162.2,625.5z"/>
			<path class="st1" d="M1146.7,585.6c3.1,0,5.4-2.1,5.4-5c0-3-2.2-5.1-5.4-5.1c-3.1,0-5.3,2.2-5.3,5.1
				C1141.3,583.5,1143.6,585.6,1146.7,585.6z"/>
			<path class="st1" d="M1162.1,585.6c3.2,0,5.4-2.1,5.4-5c0-3.1-2.2-5.1-5.4-5.1c-3.1,0-5.3,2.2-5.3,5.1
				C1156.7,583.5,1159,585.6,1162.1,585.6z"/>
			<polygon class="st1" points="1184.6,598.3 1201.7,598.3 1201.7,649.8 1211.8,649.8 1211.8,598.3 1228.5,598.3 1228.5,589.2 
				1184.6,589.2 			"/>
			<path class="st1" d="M1259.9,614.1c-5.8-2-11.2-4-11.2-9.3c0-4.7,4.2-8.2,9.7-8.2c4.8,0,10.7,2.1,14.9,5.3l0.8,0.6V592l-0.3-0.2
				c-5.3-3-10.1-4.4-15.6-4.4c-11.2,0-19.3,7.1-19.3,16.9c0,11.2,7.9,15.1,16.6,18.5c7.4,2.8,11.6,5.3,11.6,9.8
				c0,5.7-3.8,9.4-9.8,9.4c-6.9,0-13.6-4-18.1-7.3l-0.9-0.6l0.1,10.7v0.3l0.2,0.2c4.5,3,10.3,6,18.4,6c12,0,20.1-7.4,20.1-18.5
				C1277.2,624.3,1271.5,618.2,1259.9,614.1z"/>
			<polygon class="st1" points="1349.5,589.1 1327,634.4 1304.6,589.4 1304.4,589.1 1301,589.1 1289.8,649.8 1299.6,649.8 
				1306,612.3 1325.2,650.4 1325.3,650.7 1328.5,650.7 1347.9,612.3 1354.2,649.4 1354.3,649.8 1364.2,649.8 1352.9,589.1 			"/>
			<polygon class="st1" points="1389.8,623.3 1412.4,623.3 1412.4,614 1389.8,614 1389.8,598.7 1414.7,598.7 1414.7,589.2 
				1379.8,589.2 1379.8,649.8 1415.1,649.8 1415.1,640.3 1389.8,640.3 			"/>
			<path class="st1" d="M1446.6,589.2h-16.1v60.6h16.2c19.6,0,31.8-11.7,31.8-30.4C1478.5,601.1,1466,589.2,1446.6,589.2z
				 M1440.4,598.5h6c14,0,22.1,7.7,22.1,21.2c0,13.3-8,20.9-22.1,20.9h-6V598.5z"/>
			<rect x="1493.6" y="589.2" class="st1" width="9.9" height="60.6"/>
			<polygon class="st1" points="1520.2,598.3 1547.4,598.3 1516.6,649 1516.1,649.8 1562.6,649.8 1562.6,640.7 1533.1,640.7 
				1563.9,590 1564.4,589.2 1520.2,589.2 			"/>
			<rect x="1577.3" y="589.2" class="st1" width="9.9" height="60.6"/>
			<polygon class="st1" points="1649.7,629.7 1608.9,589.2 1608.7,589 1605.3,589 1605.3,649.8 1615.2,649.8 1615.2,609.4 
				1656.1,649.9 1656.2,650 1659.7,650 1659.7,589.2 1649.7,589.2 			"/>
			<path class="st1" d="M1733.1,616.5c4.4-2.3,7-6.6,7-11.6c0-9.3-7.8-15.6-19.4-15.6h-15.8v60.6h19.5c12.1,0,20.6-7.3,20.6-17.7
				C1745,624.1,1739.2,618.4,1733.1,616.5z M1721.2,613.9h-6.6V598h5.5c6.3,0,10.3,3.1,10.3,8.1
				C1730.4,610.8,1726.8,613.9,1721.2,613.9z M1714.7,622.7h10.4c5.7,0,10,3.7,10,8.6c0,5.7-4.6,9.5-11.5,9.5h-8.9V622.7z"/>
			<polygon class="st1" points="1768.8,623.3 1791.5,623.3 1791.5,614 1768.8,614 1768.8,598.7 1793.8,598.7 1793.8,589.2 
				1758.9,589.2 1758.9,649.8 1794.2,649.8 1794.2,640.3 1768.8,640.3 			"/>
			<path class="st1" d="M1848.2,607.6c0-11.2-7.9-18.4-20.2-18.4h-18.4v60.6h9.9v-24.9h5.1l16.5,24.9h11.1l-17.2-25.7
				C1843.4,622.2,1848.2,616.2,1848.2,607.6z M1819.5,598h8.4c6.5,0,10.7,3.7,10.7,9.4s-4.1,9.3-10.7,9.3h-8.4V598z"/>
			<polygon class="st1" points="1874.8,589.2 1864.8,589.2 1864.8,649.8 1895.8,649.8 1895.8,640.4 1874.8,640.4 			"/>
			<rect x="1909.2" y="589.2" class="st1" width="9.9" height="60.6"/>
			<polygon class="st1" points="1981.6,589.2 1981.6,629.7 1940.8,589.2 1940.6,589 1937.2,589 1937.2,649.8 1947.1,649.8 
				1947.1,609.4 1988,649.9 1988.1,650 1991.6,650 1991.6,589.2 			"/>
		</g>
		<g>
			<g>
				<polygon class="st2" points="1688.7,266.5 1750.9,266.5 1750.9,240.2 1598.8,240.2 1598.8,266.5 1660.3,266.5 1660.3,495 
					1688.7,495 				"/>
				<rect x="1463.1" y="240.2" class="st2" width="28.4" height="254.8"/>
				<path class="st3" d="M1033.4,422.7H924.5L893.8,495h-31.1L975,240.1l5.4-11.9l5.2,11.9L1094.9,495h-31.4L1033.4,422.7z
					 M1022.2,396.3l-42.6-102.1L936,396.3H1022.2"/>
				<path class="st3" d="M1216.5,266.5v91.6h35.5c32.8,0,55.3-15.1,55.3-47.5s-26.3-44.1-55.7-44.1H1216.5z M1283.6,379.3l62,115.7
					h-33l-57.9-111.9h-38.3V495H1188V240.2h67.3c41.9,0,80.4,19.2,80.4,70.5C1335.8,351.2,1310,371.5,1283.6,379.3"/>
				<polygon class="st2" points="1853.6,495 1991.5,495 1991.5,468.7 1882,468.7 1882,368.6 1975.9,368.6 1975.9,342.2 1882,342.2 
					1882,266.5 1987.3,266.5 1987.3,240.2 1853.6,240.2 				"/>
				<polygon class="st2" points="1934.5,147.6 1894.3,203 1911.2,212.5 1962.9,160.4 				"/>
				<polygon class="st2" points="611.7,343.6 698.2,343.6 698.2,370 611.7,370 611.7,495 583.3,495 583.3,240.2 611.7,240.2 				"/>
				<rect x="737" y="240.2" class="st2" width="28.4" height="254.8"/>
				<path class="st2" d="M471.5,259.8C449,243,424.3,235,396.2,235c-82.8,0-134.6,61.8-134.6,133.6s52.2,131.6,134.6,131.6
					c26.8,0,53.5-9,75.3-24.8v-34.1c-20.2,20.2-47.6,33.2-76.2,33.2c-61.9,0-102.8-51.1-102.8-106.9s40.1-106.9,102.1-106.9
					c29.2,0,56.7,12.4,76.9,33.2V259.8"/>
			</g>
			<g>
				<path class="st1" d="M3.2,367.6C3.2,164.6,166.7,0,373.9,0c90.7,0,173.7,32.9,237.8,87.3v56.6C552.6,81.2,468.7,42,375.6,42
					C194.1,42,52.2,187.3,52.2,366.5S194.1,691,375.6,691c93.1,0,177-39.2,236.1-101.9V648c-64.1,54.5-147.1,87.3-237.8,87.3
					C166.9,735.2,3.2,570.6,3.2,367.6"/>
			</g>
		</g>
	</g>
</g>
<g id="_x30__x2C_75">
	<g>
		<path class="st1" d="M709.7,625.7c0,9-6.7,15.7-15.5,15.7c-8.7,0-15.3-6.7-15.3-15.6v-37.1h-10.8v37.2c0,14.6,11.2,25.6,26.1,25.6
			c15.2,0,26.2-10.8,26.2-25.6v-37.2h-10.6V625.7z"/>
		<polygon class="st1" points="780.9,628.8 740.8,588.9 740.5,588.6 736.5,588.6 736.5,650.2 747.2,650.2 747.2,610.3 787.4,650.2 
			787.7,650.3 791.7,650.4 791.7,588.8 780.9,588.8 		"/>
		<rect x="808.9" y="588.8" class="st1" width="10.7" height="61.3"/>
		<polygon class="st1" points="860.3,630.8 842.2,589.4 842,588.8 830.3,588.8 857.8,650.2 858,650.8 862,650.8 889.9,588.8 
			878.4,588.8 		"/>
		<polygon class="st1" points="911.3,623.7 934,623.7 934,613.6 911.3,613.6 911.3,599.1 936.3,599.1 936.3,588.8 900.6,588.8 
			900.6,650.2 936.7,650.2 936.7,639.9 911.3,639.9 		"/>
		<path class="st1" d="M990.7,607.6c0-11.4-8.1-18.8-20.6-18.8h-18.8v61.3H962v-24.9h4.5l16.5,24.9h12l-17.4-25.7
			C985.9,622.3,990.7,616.2,990.7,607.6z M980.3,607.4c0,5.5-4,8.9-10.3,8.9h-8v-18h8C976.3,598.4,980.3,601.9,980.3,607.4z"/>
		<path class="st1" d="M1025.5,613.7L1025.5,613.7c-6.4-2.2-10.9-4.1-10.9-8.9c0-4.5,4-7.8,9.3-7.8c4.7,0,10.5,2,14.7,5.2l1.4,1
			v-11.5l-0.5-0.3c-5.4-3.1-10.3-4.4-15.8-4.4c-11.4,0-19.7,7.3-19.7,17.3c0,11.3,8,15.4,16.8,18.9c7.2,2.7,11.4,5.1,11.4,9.4
			c0,5.5-3.7,9-9.4,9c-5.3,0-11.3-2.4-17.9-7.2l-1.5-1l0.1,11.4v0.5l0.4,0.4c4.2,2.8,10.2,6.1,18.6,6.1c12.2,0,20.5-7.6,20.5-18.9
			C1043.1,624.1,1037.4,617.9,1025.5,613.7z"/>
		<rect x="1057.3" y="588.8" class="st1" width="10.6" height="61.3"/>
		<polygon class="st1" points="1124.7,588.8 1080,588.8 1080,598.7 1097.1,598.7 1097.1,650.2 1107.9,650.2 1107.9,598.7 
			1124.7,598.7 		"/>
		<path class="st1" d="M1155.9,587.9h-3.1l-28.2,62.2h11.7l6.3-14.6h23.7l6.3,14.6h11.6l-28-61.8L1155.9,587.9z M1161.6,625.1H1147
			l7.3-16.9L1161.6,625.1z"/>
		<path class="st1" d="M1146.7,586c3.3,0,5.8-2.3,5.8-5.4c0-3.2-2.4-5.5-5.8-5.5c-3.3,0-5.7,2.3-5.7,5.5c0,1.4,0.4,2.7,1.4,3.7
			C1143.5,585.4,1145,586,1146.7,586z"/>
		<path class="st1" d="M1162.1,586c3.3,0,5.8-2.3,5.8-5.4c0-3.3-2.3-5.5-5.8-5.5c-3.3,0-5.7,2.3-5.7,5.5c0,1.4,0.4,2.7,1.4,3.7
			C1158.9,585.4,1160.4,586,1162.1,586z"/>
		<polygon class="st1" points="1184.2,598.7 1201.3,598.7 1201.3,650.2 1212.2,650.2 1212.2,598.7 1228.9,598.7 1228.9,588.8 
			1184.2,588.8 		"/>
		<path class="st1" d="M1260,613.7L1260,613.7c-6.4-2.2-11-4.1-11-8.9c0-4.5,4-7.8,9.3-7.8c4.7,0,10.5,2,14.7,5.2l1.4,1v-11.5
			l-0.5-0.3c-5.4-3.1-10.3-4.4-15.8-4.4c-11.4,0-19.7,7.3-19.7,17.3c0,11.3,8,15.4,16.8,18.9c7.2,2.7,11.4,5.1,11.4,9.4
			c0,5.5-3.7,9-9.4,9c-5.3,0-11.3-2.4-17.9-7.2l-1.5-1l0.1,11.4v0.5l0.4,0.4c4.2,2.8,10.2,6.1,18.6,6.1c12.2,0,20.5-7.6,20.5-18.9
			C1277.6,624.2,1271.9,617.9,1260,613.7z"/>
		<polygon class="st1" points="1353.2,588.7 1349.3,588.7 1327,633.6 1304.9,589.2 1304.6,588.7 1300.7,588.7 1289.4,649.7 
			1289.3,650.2 1299.9,650.2 1306.2,613.5 1324.8,650.5 1325,651.1 1328.7,651.1 1347.7,613.5 1353.8,649.5 1354,650.2 
			1364.7,650.2 1353.3,589 		"/>
		<polygon class="st1" points="1390.2,623.7 1412.8,623.7 1412.8,613.6 1390.2,613.6 1390.2,599.1 1415.1,599.1 1415.1,588.8 
			1379.4,588.8 1379.4,650.2 1415.5,650.2 1415.5,639.9 1390.2,639.9 		"/>
		<path class="st1" d="M1446.6,588.8h-16.5v61.3h16.6c19.8,0,32.2-11.8,32.2-30.8C1478.9,600.8,1466.2,588.8,1446.6,588.8z
			 M1440.8,598.9h5.6c13.8,0,21.7,7.6,21.7,20.8c0,13-7.9,20.5-21.7,20.5h-5.6V598.9z"/>
		<rect x="1493.2" y="588.8" class="st1" width="10.7" height="61.3"/>
		<polygon class="st1" points="1519.8,598.7 1546.7,598.7 1516.3,648.8 1515.4,650.2 1563,650.2 1563,640.3 1533.8,640.3 
			1564.2,590.2 1565.1,588.8 1519.8,588.8 		"/>
		<rect x="1576.9" y="588.8" class="st1" width="10.7" height="61.3"/>
		<polygon class="st1" points="1649.3,628.8 1608.9,588.6 1604.9,588.6 1604.9,650.2 1615.6,650.2 1615.6,610.3 1656,650.4 
			1660.1,650.4 1660.1,588.8 1649.3,588.8 		"/>
		<path class="st1" d="M1734,616.4c4.1-2.4,6.5-6.7,6.5-11.5c0-9.6-7.9-16-19.8-16h-16.2v61.4h19.9c12.3,0,21-7.4,21-18.1
			C1745.4,624.1,1739.8,618.5,1734,616.4z M1734.7,631.3c0,5.5-4.5,9.1-11.1,9.1h-8.5v-17.3h10
			C1730.6,623.1,1734.7,626.6,1734.7,631.3z M1730,606.1c0,4.5-3.5,7.4-8.8,7.4h-6.2v-15.2h5.1C1726.2,598.4,1730,601.3,1730,606.1z
			"/>
		<polygon class="st1" points="1769.2,623.7 1791.9,623.7 1791.9,613.6 1769.2,613.6 1769.2,599.1 1794.2,599.1 1794.2,588.8 
			1758.5,588.8 1758.5,650.2 1794.6,650.2 1794.6,639.9 1769.2,639.9 		"/>
		<path class="st1" d="M1848.6,607.6c0-11.4-8.1-18.8-20.6-18.8h-18.8v61.3h10.7v-24.9h4.5l16.5,24.9h12l-17.3-25.8
			C1843.9,622.3,1848.6,616.2,1848.6,607.6z M1819.9,598.4h8c6.3,0,10.3,3.5,10.3,9c0,5.5-4,8.9-10.3,8.9h-8V598.4z"/>
		<polygon class="st1" points="1875.2,588.8 1864.4,588.8 1864.4,650.2 1896.2,650.2 1896.2,640 1875.2,640 		"/>
		<rect x="1908.8" y="588.8" class="st1" width="10.6" height="61.3"/>
		<polygon class="st1" points="1981.2,588.8 1981.2,628.8 1940.8,588.6 1936.8,588.6 1936.8,650.2 1947.5,650.2 1947.5,610.3 
			1987.9,650.4 1992,650.4 1992,588.8 		"/>
	</g>
</g>
</svg>
